<svg width="127" height="20" viewBox="0 0 127 20" fill="none" xmlns="http://www.w3.org/2000/svg">
<path d="M7.6776 0.0273221C8.49727 0.0273221 9.25319 0.182149 9.94535 0.491803C10.6557 0.801457 11.2659 1.2204 11.776 1.74863C12.286 2.27687 12.6867 2.90528 12.9781 3.63388C13.2696 4.36248 13.4153 5.14572 13.4153 5.98361V14.4809H9.67213V6.20219C9.67213 5.41894 9.39891 4.78142 8.85246 4.28962C8.32423 3.7796 7.65027 3.52459 6.8306 3.52459C6.39344 3.52459 5.98361 3.60656 5.60109 3.77049C5.23679 3.91621 4.91803 4.12568 4.64481 4.39891C4.37158 4.67213 4.15301 5 3.98907 5.38251C3.84335 5.74681 3.77049 6.14754 3.77049 6.5847V14.4809H0V0.273224H3.77049V1.74863C4.18944 1.20219 4.73588 0.783242 5.40984 0.491803C6.102 0.182149 6.85792 0.0273221 7.6776 0.0273221Z" fill="#111827"/>
<path d="M27.2938 7.43169C27.2938 6.88525 27.1936 6.37523 26.9933 5.90164C26.8111 5.40984 26.5561 4.99089 26.2282 4.64481C25.9004 4.28051 25.5087 3.99818 25.0534 3.79781C24.6162 3.59745 24.1335 3.49727 23.6053 3.49727C23.077 3.49727 22.5852 3.59745 22.1299 3.79781C21.6927 3.99818 21.3102 4.28051 20.9823 4.64481C20.6545 4.99089 20.3903 5.40073 20.19 5.87432C20.0078 6.3479 19.9168 6.86703 19.9168 7.43169C19.9168 7.99636 20.0078 8.51548 20.19 8.98907C20.3721 9.46266 20.6271 9.8725 20.955 10.2186C21.2829 10.5647 21.6654 10.8379 22.1025 11.0383C22.5579 11.2386 23.0497 11.3388 23.578 11.3388C24.1062 11.3388 24.598 11.2386 25.0534 11.0383C25.5087 10.8379 25.9004 10.5647 26.2282 10.2186C26.5561 9.8725 26.8111 9.46266 26.9933 8.98907C27.1936 8.49727 27.2938 7.97814 27.2938 7.43169ZM23.0862 0.0819678C23.924 0.0819678 24.6982 0.236794 25.4086 0.546448C26.1372 0.837887 26.7656 1.27505 27.2938 1.85792V0.300546H31.0643V14.5082H27.2938V12.9508C26.1463 14.1712 24.7528 14.7814 23.1135 14.7814C22.1663 14.7814 21.2738 14.5811 20.4359 14.1803C19.598 13.7796 18.8603 13.2423 18.2228 12.5683C17.5852 11.8761 17.0752 11.0838 16.6927 10.1913C16.3284 9.28051 16.1463 8.32423 16.1463 7.3224C16.1463 6.32058 16.3284 5.38251 16.6927 4.5082C17.057 3.61566 17.5488 2.84153 18.1681 2.18579C18.8056 1.53005 19.5433 1.02004 20.3812 0.655737C21.2373 0.273224 22.139 0.0819678 23.0862 0.0819678Z" fill="#111827"/>
<path d="M42.5777 0.0273221C43.3974 0.0273221 44.1533 0.182149 44.8455 0.491803C45.5558 0.801457 46.166 1.2204 46.6761 1.74863C47.1861 2.27687 47.5868 2.90528 47.8782 3.63388C48.1697 4.36248 48.3154 5.14572 48.3154 5.98361V14.4809H44.5722V6.20219C44.5722 5.41894 44.299 4.78142 43.7526 4.28962C43.2243 3.7796 42.5504 3.52459 41.7307 3.52459C41.2935 3.52459 40.8837 3.60656 40.5012 3.77049C40.1369 3.91621 39.8181 4.12568 39.5449 4.39891C39.2717 4.67213 39.0531 5 38.8892 5.38251C38.7435 5.74681 38.6706 6.14754 38.6706 6.5847V14.4809H34.9001V0.273224H38.6706V1.74863C39.0895 1.20219 39.636 0.783242 40.3099 0.491803C41.0021 0.182149 41.758 0.0273221 42.5777 0.0273221Z" fill="#111827"/>
<path d="M62.1666 7.43169C62.1666 6.88525 62.0664 6.37523 61.866 5.90164C61.6839 5.42805 61.4198 5.00911 61.0737 4.64481C60.7458 4.28051 60.3542 3.99818 59.8988 3.79781C59.4617 3.57923 58.9881 3.46995 58.4781 3.46995C57.968 3.46995 57.4853 3.57923 57.03 3.79781C56.5746 3.99818 56.1739 4.28051 55.8278 4.64481C55.4999 5.00911 55.2358 5.43716 55.0354 5.92896C54.8533 6.40255 54.7622 6.90346 54.7622 7.43169C54.7622 7.95993 54.8533 8.46084 55.0354 8.93443C55.2358 9.3898 55.4999 9.79964 55.8278 10.1639C56.1739 10.51 56.5746 10.7923 57.03 11.0109C57.4853 11.2113 57.968 11.3115 58.4781 11.3115C58.9881 11.3115 59.4617 11.2113 59.8988 11.0109C60.3542 10.8106 60.7458 10.5373 61.0737 10.1913C61.4198 9.82696 61.6839 9.40801 61.866 8.93443C62.0664 8.46084 62.1666 7.95993 62.1666 7.43169ZM50.9917 7.43169C50.9917 6.41166 51.183 5.45537 51.5655 4.56284C51.9662 3.65209 52.5036 2.85974 53.1775 2.18579C53.8697 1.51184 54.662 0.983606 55.5546 0.601093C56.4653 0.218579 57.4398 0.0273221 58.4781 0.0273221C59.5163 0.0273221 60.4817 0.218579 61.3742 0.601093C62.285 0.983606 63.0773 1.51184 63.7513 2.18579C64.4252 2.85974 64.9535 3.64299 65.336 4.53552C65.7367 5.42805 65.9371 6.39344 65.9371 7.43169C65.9371 8.45173 65.7367 9.40801 65.336 10.3005C64.9535 11.1931 64.4252 11.9672 63.7513 12.623C63.0955 13.2787 62.3123 13.7978 61.4016 14.1803C60.4908 14.5628 59.5163 14.7541 58.4781 14.7541C57.4398 14.7541 56.4653 14.5628 55.5546 14.1803C54.6438 13.7978 53.8515 13.2787 53.1775 12.623C52.5036 11.949 51.9662 11.1658 51.5655 10.2732C51.183 9.38069 50.9917 8.43352 50.9917 7.43169Z" fill="#111827"/>
<path d="M84.524 0C85.3801 0 86.1542 0.145719 86.8464 0.437158C87.5568 0.728597 88.167 1.13843 88.677 1.66667C89.187 2.1949 89.5786 2.82331 89.8519 3.55191C90.1251 4.28051 90.2617 5.07286 90.2617 5.92896V14.4809H86.5458V6.17486C86.5458 5.35519 86.3182 4.69945 85.8628 4.20765C85.4256 3.71585 84.8427 3.46995 84.1141 3.46995C83.3491 3.46995 82.7116 3.74317 82.2016 4.28962C81.7098 4.81785 81.4639 5.50091 81.4639 6.3388V14.4809H77.6661V6.14754C77.6661 5.3643 77.4384 4.72678 76.983 4.23497C76.5458 3.72495 75.9721 3.46995 75.2617 3.46995C74.4967 3.46995 73.8591 3.75228 73.3491 4.31694C72.8391 4.86339 72.5841 5.55556 72.5841 6.39344V14.4809H68.8136V0.273224H72.5841V1.69399C72.9484 1.18397 73.4584 0.774135 74.1142 0.464481C74.7699 0.154827 75.4529 0 76.1633 0C76.9466 0 77.6843 0.200364 78.3764 0.601093C79.0686 0.983606 79.6333 1.52095 80.0704 2.21311C81.1633 0.737705 82.6478 0 84.524 0Z" fill="#111827"/>
<path d="M104.325 7.43169C104.325 6.88525 104.225 6.37523 104.024 5.90164C103.842 5.40984 103.587 4.99089 103.259 4.64481C102.931 4.28051 102.54 3.99818 102.084 3.79781C101.647 3.59745 101.165 3.49727 100.636 3.49727C100.108 3.49727 99.6163 3.59745 99.1609 3.79781C98.7237 3.99818 98.3412 4.28051 98.0134 4.64481C97.6855 4.99089 97.4214 5.40073 97.221 5.87432C97.0389 6.3479 96.9478 6.86703 96.9478 7.43169C96.9478 7.99636 97.0389 8.51548 97.221 8.98907C97.4032 9.46266 97.6582 9.8725 97.986 10.2186C98.3139 10.5647 98.6964 10.8379 99.1336 11.0383C99.5889 11.2386 100.081 11.3388 100.609 11.3388C101.137 11.3388 101.629 11.2386 102.084 11.0383C102.54 10.8379 102.931 10.5647 103.259 10.2186C103.587 9.8725 103.842 9.46266 104.024 8.98907C104.225 8.49727 104.325 7.97814 104.325 7.43169ZM100.117 0.0819678C100.955 0.0819678 101.729 0.236794 102.44 0.546448C103.168 0.837887 103.797 1.27505 104.325 1.85792V0.300546H108.095V14.5082H104.325V12.9508C103.177 14.1712 101.784 14.7814 100.145 14.7814C99.1973 14.7814 98.3048 14.5811 97.4669 14.1803C96.629 13.7796 95.8913 13.2423 95.2538 12.5683C94.6163 11.8761 94.1063 11.0838 93.7237 10.1913C93.3594 9.28051 93.1773 8.32423 93.1773 7.3224C93.1773 6.32058 93.3594 5.38251 93.7237 4.5082C94.088 3.61566 94.5798 2.84153 95.1991 2.18579C95.8367 1.53005 96.5744 1.02004 97.4123 0.655737C98.2684 0.273224 99.17 0.0819678 100.117 0.0819678Z" fill="#111827"/>
<path d="M115.674 7.40437C115.674 7.95082 115.765 8.46995 115.948 8.96175C116.148 9.43534 116.412 9.84517 116.74 10.1913C117.068 10.5373 117.459 10.8106 117.915 11.0109C118.37 11.2113 118.862 11.3115 119.39 11.3115C119.918 11.3115 120.401 11.2113 120.838 11.0109C121.294 10.8106 121.685 10.5373 122.013 10.1913C122.341 9.82696 122.596 9.40801 122.778 8.93443C122.978 8.46084 123.079 7.94171 123.079 7.37705C123.079 6.81239 122.988 6.29326 122.805 5.81967C122.623 5.34608 122.368 4.93625 122.04 4.59016C121.713 4.24408 121.321 3.97996 120.866 3.79781C120.428 3.59745 119.946 3.49727 119.417 3.49727C118.871 3.49727 118.37 3.59745 117.915 3.79781C117.459 3.99818 117.068 4.2714 116.74 4.61749C116.412 4.96357 116.148 5.37341 115.948 5.84699C115.765 6.32058 115.674 6.83971 115.674 7.40437ZM119.882 14.7541C119.044 14.7541 118.261 14.6084 117.532 14.3169C116.822 14.0073 116.203 13.5519 115.674 12.9508V20H111.904V0.300546H115.674V1.88525C116.84 0.664845 118.233 0.0546441 119.855 0.0546441C120.802 0.0546441 121.694 0.255009 122.532 0.655737C123.388 1.05647 124.135 1.59381 124.773 2.26776C125.41 2.94171 125.911 3.73406 126.275 4.64481C126.658 5.53734 126.849 6.49362 126.849 7.51366C126.849 8.51548 126.667 9.45355 126.303 10.3279C125.938 11.2022 125.438 11.9672 124.8 12.623C124.181 13.2787 123.443 13.7978 122.587 14.1803C121.749 14.5628 120.847 14.7541 119.882 14.7541Z" fill="#111827"/>
</svg>
